<?xml version="1.0" encoding="utf-8"?>
<!-- Generator: Adobe Illustrator 16.0.0, SVG Export Plug-In . SVG Version: 6.00 Build 0)  -->
<!DOCTYPE svg PUBLIC "-//W3C//DTD SVG 1.1//EN" "http://www.w3.org/Graphics/SVG/1.1/DTD/svg11.dtd">
<svg version="1.1" id="Layer_1" xmlns="http://www.w3.org/2000/svg" xmlns:xlink="http://www.w3.org/1999/xlink" x="0px" y="0px"
	 width="180px" height="180px" viewBox="-213.333 4.333 180 180" enable-background="new -213.333 4.333 180 180"
	 xml:space="preserve">
<rect x="-91" y="-74.667" display="none" fill="#FFDBAA" width="299.499" height="235"/>
<circle stroke="#FFFFFF" stroke-width="7" stroke-miterlimit="10" cx="89.887" cy="96.536" r="79.666"/>
<text transform="matrix(1.0349 0 0 1 442.7134 108.9175)" font-family="'BodoniSvtyTwoOSITCTT-Book'" font-size="156.274">CS</text>
<text transform="matrix(1.0349 0 0 1 345.2446 386.1313)" font-family="'BodoniSvtyTwoOSITCTT-Book'" font-size="156.274" letter-spacing="-3.865">CS</text>
<text transform="matrix(1.0349 0 0 1 304.7388 -142.9819)" font-family="'BodoniSvtyTwoOSITCTT-Book'" font-size="156.274">CS</text>
<text transform="matrix(1.0349 0 0 1 459.1782 -142.9819)" font-family="'BodoniSvtyTwoOSITCTT-BookIt'" font-size="156.274">D</text>
<text transform="matrix(1.0349 0 0 1 602.2153 150.4888)" font-family="'BodoniSvtyTwoOSITCTT-Book'" font-size="272.4413">D</text>
<text transform="matrix(1.0349 0 0 1 709.8091 298.7896)" fill="#EB3895" font-family="'BodoniSvtyTwoOSITCTT-BookIt'" font-size="156.274">D</text>
<text transform="matrix(1.0349 0 0 1 741.4556 334.2769)" fill="#EB3895" font-family="'BodoniSvtyTwoOSITCTT-BookIt'" font-size="156.274">D</text>
<g opacity="0.7">
	<path fill="#21B24B" d="M610.206,315.082c0,14.836-4.609,28.394-13.828,40.67c-9.219,12.277-21.428,21.184-36.631,26.722
		c-6.578,2.401-12.186,3.944-16.818,4.624c-4.639,0.679-12.615,1.072-23.936,1.175c-3.453,0-11.646,0.054-24.584,0.155h-9.057
		c-0.971,0.209-2.104,0.312-3.396,0.312c-1.508,0-2.264-0.469-2.264-1.406c0-0.832,0.701-1.353,2.104-1.562
		c0.969-0.103,2.643-0.155,5.014-0.155c4.957,0,8.086-0.471,9.381-1.412c1.186-1.357,2.072-2.768,2.668-4.231
		c0.592-1.464,1.59-3.763,2.99-6.897l32.67-78.373c2.264-5.435,3.396-8.621,3.396-9.562c0-1.252-1.674-2.036-5.014-2.352
		l-8.734-0.709c-1.725,0-2.588-0.375-2.588-1.129s1.133-1.132,3.396-1.132c1.617,0,4.852,0.104,9.703,0.312
		c2.48,0.104,5.822,0.156,10.027,0.156h10.998c2.369,0,5.064-0.156,8.086-0.469c3.018,0,4.852,0,5.498,0
		c9.703,0,17.629,1.518,23.773,4.544C604.489,290.214,610.206,300.455,610.206,315.082z M594.194,309.978
		c0-10.104-2.805-17.348-8.408-21.723c-4.529-3.541-10.893-5.313-19.084-5.313c-4.314,0-7.549,0.21-9.705,0.626
		c-1.078,0.21-2.318,1.771-3.719,4.688c-2.049,4.168-3.506,7.346-4.367,9.533l-30.566,74.698
		c-2.695,6.563-4.043,10.056-4.043,10.472c0,1.562,2.912,2.345,8.734,2.345c19.945,0,36.227-6.771,48.84-20.316
		c6.9-7.291,12.346-15.886,16.336-25.784C592.198,329.304,594.194,319.564,594.194,309.978z"/>
</g>
<text transform="matrix(1.0349 0 0 1 67.1099 486.5562)" font-family="'BodoniSvtyTwoOSITCTT-Book'" font-size="97.345" letter-spacing="-2.899">CS</text>
<g opacity="0.7">
	<path fill="#21B24B" d="M232.157,442.296c0,9.242-2.871,17.689-8.613,25.336s-13.349,13.195-22.818,16.646
		c-4.098,1.496-7.59,2.457-10.477,2.881c-2.89,0.422-7.858,0.668-14.91,0.729c-2.15,0-7.254,0.033-15.313,0.1h-5.642
		c-0.604,0.129-1.311,0.193-2.115,0.193c-0.939,0-1.41-0.293-1.41-0.877c0-0.518,0.438-0.842,1.311-0.973
		c0.604-0.064,1.646-0.098,3.123-0.098c3.088,0,5.037-0.293,5.842-0.879c0.74-0.846,1.293-1.725,1.662-2.637
		c0.369-0.91,0.99-2.344,1.865-4.297l20.35-48.82c1.41-3.385,2.115-5.369,2.115-5.957c0-0.779-1.041-1.268-3.123-1.465l-5.44-0.441
		c-1.075,0-1.612-0.234-1.612-0.703s0.706-0.705,2.116-0.705c1.007,0,3.022,0.066,6.044,0.195c1.544,0.064,3.626,0.098,6.246,0.098
		h6.852c1.476,0,3.155-0.098,5.037-0.293c1.879,0,3.021,0,3.424,0c6.045,0,10.981,0.945,14.81,2.832
		C228.596,426.806,232.157,433.185,232.157,442.296z M222.183,439.121c0-6.295-1.747-10.809-5.238-13.531
		c-2.821-2.205-6.784-3.311-11.888-3.311c-2.688,0-4.702,0.131-6.045,0.391c-0.672,0.131-1.445,1.104-2.317,2.92
		c-1.276,2.596-2.183,4.574-2.72,5.938l-19.041,46.531c-1.68,4.09-2.518,6.264-2.518,6.523c0,0.973,1.812,1.459,5.439,1.459
		c12.424,0,22.566-4.217,30.424-12.654c4.297-4.541,7.689-9.896,10.176-16.064C220.939,451.158,222.183,445.089,222.183,439.121z"/>
</g>
<text transform="matrix(1.0349 0 0 1 15.5376 129.4155)" fill="#FFFFFF" font-family="'BodoniSvtyTwoOSITCTT-Book'" font-size="87.5117" letter-spacing="-4.831">CS</text>
<g>
	<path fill="#FFFFFF" d="M236.208-112.636c0,0.873-0.859,1.229-2.582,1.069c-1.395,0.081-2.336,0.219-2.828,0.416
		c-0.491,0.199-1.395,0.892-2.705,2.079c-0.245,0.318-0.614,0.475-1.105,0.475c-0.492,0-1.477-0.671-2.951-2.019
		c-2.213-1.979-4.672-3.208-7.377-3.684c1.064,3.249,2.909,6.14,5.533,8.673c0.492,0.477,0.738,0.873,0.738,1.189
		c0,0.078-0.452,0.732-1.354,1.959c-0.902,1.23-1.395,2.656-1.476,4.277c-0.083,1.625-0.451,2.436-1.106,2.436
		c-0.574,0-1.271-0.871-2.09-2.613c-0.656-1.346-1.476-2.258-2.459-2.732c-1.476-0.871-2.213-1.584-2.213-2.139
		c0-0.316,0.369-1.307,1.105-2.971c0.902-2.059,1.354-4.117,1.354-6.178c0-0.553-0.042-1.069-0.123-1.544
		c-2.542,1.663-4.715,4.159-6.518,7.484c-0.491,0.873-0.982,1.309-1.475,1.309c-0.166,0-0.369-0.078-0.615-0.238
		c-1.476-0.713-2.625-1.07-3.442-1.07c-0.411,0-1.558,0.238-3.442,0.714c-0.166,0.079-0.492,0.118-0.984,0.118
		c-0.737,0-1.105-0.236-1.105-0.713c0-0.553,0.409-1.107,1.229-1.663c0.984-0.87,1.68-1.604,2.091-2.198
		c0.409-0.594,0.737-1.563,0.983-2.911c0.326-1.028,0.983-1.544,1.967-1.544c0.246,0,1.271,0.16,3.074,0.476h0.983
		c2.213,0,4.427-0.435,6.64-1.307c-2.295-2.059-5.492-3.366-9.59-3.921c-1.148-0.158-1.722-0.633-1.722-1.426
		c0-0.553,0.041-1.028,0.123-1.426v-1.069c0-0.871-0.534-2.059-1.599-3.564c-0.574-0.791-0.86-1.426-0.86-1.901
		s0.286-0.713,0.86-0.713c0.082,0,1.517,0.674,4.304,2.02l0.491,0.238l4.058-0.356c0.737,0,1.229,0.95,1.476,2.851
		c0.409,3.012,1.639,5.625,3.689,7.842c0.818-2.059,1.229-3.96,1.229-5.703c0-1.821-0.123-3.089-0.369-3.802
		c-0.082-0.238-0.123-0.553-0.123-0.951c0-0.633,0.572-1.108,1.722-1.426c1.967-0.475,3.483-1.426,4.549-2.851
		c0.817-1.108,1.517-1.664,2.09-1.664c0.655,0,0.984,0.317,0.984,0.95c0,0.397-0.104,1.03-0.308,1.901
		c-0.207,0.872-0.308,1.544-0.308,2.02c0,0.872,0.286,1.901,0.86,3.089c0.246,0.555,0.369,0.95,0.369,1.188
		c0,0.635-0.78,1.348-2.336,2.139c-2.951,1.426-5.164,3.406-6.641,5.941c0.655,0.08,1.27,0.118,1.844,0.118
		c2.131,0,4.713-0.712,7.746-2.138c0.655-0.316,1.23-0.475,1.723-0.475s1.023,0.436,1.599,1.307c0.817,1.268,1.66,2.12,2.521,2.555
		c0.861,0.436,1.865,0.852,3.014,1.248C235.92-113.23,236.208-112.952,236.208-112.636z"/>
</g>
<g opacity="0.7">
	<path fill="#3ABFEF" d="M170.308,85.87c0,11.584-3.341,22.168-10.024,31.756c-6.686,9.586-15.539,16.539-26.562,20.865
		c-4.769,1.875-8.835,3.078-12.195,3.611c-3.362,0.527-9.147,0.836-17.354,0.915c-2.504,0-8.443,0.041-17.825,0.122H79.78
		c-0.703,0.16-1.524,0.244-2.462,0.244c-1.094,0-1.642-0.366-1.642-1.1c0-0.648,0.508-1.056,1.524-1.219
		c0.704-0.081,1.917-0.123,3.635-0.123c3.595,0,5.863-0.367,6.802-1.104c0.859-1.059,1.503-2.162,1.934-3.305
		c0.429-1.142,1.152-2.938,2.17-5.388l23.686-61.193c1.643-4.242,2.465-6.731,2.465-7.466c0-0.979-1.215-1.59-3.637-1.836
		l-6.334-0.553c-1.25,0-1.875-0.293-1.875-0.881c0-0.589,0.822-0.884,2.463-0.884c1.173,0,3.518,0.081,7.037,0.245
		c1.797,0.081,4.221,0.121,7.269,0.121h7.976c1.719,0,3.674-0.121,5.862-0.366c2.188,0,3.519,0,3.987,0
		c7.035,0,12.781,1.185,17.238,3.548C166.163,66.454,170.308,74.449,170.308,85.87z M158.698,81.886
		c0-7.89-2.033-13.545-6.097-16.96c-3.283-2.765-7.897-4.15-13.837-4.15c-3.127,0-5.473,0.163-7.037,0.488
		c-0.78,0.165-1.682,1.384-2.696,3.662c-1.485,3.252-2.542,5.733-3.167,7.443l-22.162,58.323c-1.955,5.128-2.933,7.854-2.933,8.179
		c0,1.219,2.112,1.828,6.333,1.828c14.462,0,26.268-5.285,35.413-15.861c5.003-5.691,8.95-12.405,11.844-20.135
		C157.25,96.975,158.698,89.371,158.698,81.886z"/>
</g>
<g id="XMLID_1_">
	<g>
		<path fill="#FFFFFF" d="M182.978-123.207c-2.539,12.516-19.995,22.082-32.55,22.082s-29.357-9.893-32.551-22.082
			c4.658-12.843,20.283-21.506,32.551-21.918C162.983-145.125,178.149-136.534,182.978-123.207z M166.293-122.879
			c0-8.761-7.104-15.866-15.865-15.866c-8.762,0-15.866,7.105-15.866,15.866c0,8.761,7.104,15.866,15.866,15.866
			C159.189-107.013,166.293-114.119,166.293-122.879z"/>
		<path fill="#2DB670" d="M150.428-138.746c8.761,0,15.865,7.105,15.865,15.866c0,8.761-7.104,15.866-15.865,15.866
			c-8.762,0-15.866-7.105-15.866-15.866C134.562-131.641,141.667-138.746,150.428-138.746z M158.77-122.879
			c0-4.606-3.736-8.342-8.342-8.342c-4.606,0-8.342,3.736-8.342,8.342s3.736,8.342,8.342,8.342
			C155.034-114.538,158.77-118.273,158.77-122.879z"/>
	</g>
	<g>
		<circle fill="none" stroke="#A3CD39" stroke-miterlimit="10" cx="150.428" cy="-122.879" r="15.866"/>
	</g>
</g>
<path fill="#FFFFFF" stroke="#FFFFFF" stroke-linecap="round" stroke-linejoin="round" stroke-miterlimit="10" d="M146.73,92.076
	c-4.075,7.039-11.33,12.102-12.144,12.102h0.082c8.584-0.246,12.062-4.98,17.166-11.318c-2.676,4.487-7.451,9.961-7.861,10.085
	c5.68-4.239,7.162-5.969,11.525-10.991c-16.932,20.76-24.285,20.869-34.166,16.809c-1.451-0.598-2.633-1.098-4.664-0.879
	c1.262-1.592,1.041-4.609,7.189-3.004h-0.055c-2.471-8.274,9.138-1.647,22.927-12.719"/>
<circle stroke="#FFFFFF" stroke-width="7" stroke-miterlimit="10" cx="-123.113" cy="96.536" r="79.666"/>
<text transform="matrix(1.0349 0 0 1 -211.4624 319.4155)" fill="#FFFFFF" font-family="'BodoniSvtyTwoOSITCTT-Book'" font-size="87.5117" letter-spacing="-4.831">CS</text>
<g opacity="0.7">
	<path fill="#3ABFEF" d="M-74.035,79.343c0,11.585-3.341,22.169-10.024,31.757c-6.686,9.586-15.539,16.539-26.562,20.865
		c-4.769,1.875-8.835,3.078-12.195,3.611c-3.362,0.527-9.147,0.836-17.354,0.915c-2.504,0-8.443,0.041-17.825,0.122h-6.567
		c-0.703,0.16-1.524,0.244-2.462,0.244c-1.094,0-1.642-0.366-1.642-1.1c0-0.648,0.508-1.056,1.524-1.219
		c0.704-0.081,1.917-0.123,3.635-0.123c3.595,0,5.863-0.367,6.802-1.104c0.859-1.059,1.503-2.162,1.934-3.305
		c0.429-1.142,1.152-2.938,2.17-5.388l23.686-61.193c1.643-4.242,2.465-6.73,2.465-7.466c0-0.979-1.215-1.59-3.637-1.836
		l-6.334-0.553c-1.25,0-1.875-0.293-1.875-0.882c0-0.588,0.822-0.883,2.463-0.883c1.173,0,3.518,0.08,7.037,0.244
		c1.797,0.082,4.221,0.121,7.269,0.121h7.976c1.719,0,3.674-0.121,5.862-0.365c2.188,0,3.519,0,3.987,0
		c7.035,0,12.781,1.185,17.238,3.547C-78.18,59.927-74.035,67.923-74.035,79.343z M-85.645,75.359
		c0-7.889-2.033-13.545-6.097-16.959c-3.283-2.766-7.897-4.15-13.837-4.15c-3.127,0-5.473,0.163-7.037,0.488
		c-0.78,0.165-1.682,1.384-2.696,3.662c-1.485,3.252-2.542,5.732-3.167,7.443l-22.162,58.322c-1.955,5.128-2.933,7.854-2.933,8.179
		c0,1.219,2.112,1.828,6.333,1.828c14.462,0,26.268-5.285,35.413-15.861c5.003-5.691,8.95-12.405,11.844-20.135
		C-87.092,90.449-85.645,82.844-85.645,75.359z"/>
</g>
<path fill="#FFFFFF" stroke="#FFFFFF" stroke-linecap="round" stroke-linejoin="round" stroke-miterlimit="10" d="M6.769,317.532
	c-4.075,7.039-11.33,12.102-12.144,12.102h0.082c8.584-0.246,12.062-4.98,17.166-11.318c-2.676,4.488-7.451,9.961-7.861,10.086
	c5.68-4.24,7.162-5.969,11.525-10.992c-16.932,20.76-24.285,20.869-34.166,16.809c-1.451-0.598-2.633-1.098-4.664-0.879
	c1.262-1.592,1.041-4.609,7.189-3.004h-0.055c-2.471-8.273,9.138-1.646,22.927-12.719"/>
<g>
	<path fill-rule="evenodd" clip-rule="evenodd" d="M10.752-89.722c-2.047-3.146-3.771-6.121-5.803-8.869
		c-9.785-13.238-20.113-14.625-33.208-4.697c-3.308,2.507-6.653,5.133-10.362,6.906c-7.338,3.512-12.182,2.113-17.399-4.208
		c-5.216-6.32-7.01-6.396-12.94-0.754c-4.085,3.888-8.145,7.817-12.426,11.484c-3.972,3.405-8.656,4.06-12.8,0.711
		c-4.584-3.705-7.542-1.308-10.755,1.709c-11.979,11.246-11.984,11.233-24.123-0.012c-0.517-0.48-1.207-0.774-1.949-1.237
		c-4,4.987-4.169,14.581-13.357,12.916c-3.233-0.585-5.733-5.215-8.567-7.999c-0.48-1.342-0.96-2.684-1.44-4.026
		c-1.14,2.454-1.791,5.335-3.503,7.288c-7.58,8.642-16.756,15.188-27.906,18.313c-6.091,1.706-8.738,5.364-9.749,11.337
		c-2.127,12.564-4.59,25.076-7.137,37.564c-0.418,2.049-1.966,3.865-2.993,5.789c-0.915-2.211-2.841-4.555-2.58-6.617
		c1.599-12.641,3.277-25.303,5.78-37.786c1.491-7.435,1.096-13.902-3.218-20.287c-1.811-2.679-2.484-6.127-3.547-8.895
		c1.165-1.001,1.542-1.598,1.887-1.581c11.356,0.587,11.315,0.584,14.729-11.314c5.136-17.9,10.326-35.786,15.519-53.67
		c0.544-1.874,0.909-3.944,1.99-5.478c1.034-1.466,2.879-3.203,4.394-3.229c1.279-0.021,3.482,2.075,3.751,3.518
		c1.597,8.582,4.075,17.297,3.757,25.875c-0.549,14.892-2.919,29.716-4.526,44.568c0.632,0.412,1.265,0.823,1.896,1.234
		c3.791-5.046,7.438-10.211,11.448-15.078c1.485-1.801,3.82-2.903,5.768-4.323c1.219,1.858,2.989,3.572,3.535,5.612
		c0.926,3.458,1.081,7.124,1.771,12.281c3.196-3.95,5.569-6.898,7.958-9.834c3.524-4.332,6.57-4.517,9.563,0.716
		c5.224,9.136,8.69,9.674,15.521,1.593c4.996-5.911,9.162-9.244,17.38-4.547c2.785,1.591,9.072-1.424,12.95-3.707
		c3.667-2.159,6.036-6.403,9.4-9.227c6.128-5.147,12.36-4.087,16.471,2.603c3.456,5.622,8.251,5.803,13.322,3.146
		c3.877-2.031,7.306-4.91,10.946-7.397c14.792-10.109,32.105-6.25,40.664,9.457c2.756,5.058,5.689,5.951,10.594,3.38
		c6.943-3.638,13.912-7.339,21.205-10.149c2.51-0.967,6.018,0.658,9.068,1.099c-1.768,2.154-3.121,5.078-5.391,6.308
		c-5.367,2.909-11.283,4.786-16.771,7.495c-8.113,4.005-9.07,7.022-6.748,15.818c4.426,16.765,1.207,31.916-11.404,44.07
		c-2.887,2.781-9.102,5.17-12.207,3.895c-3.93-1.615-8.238-6.846-8.904-11.062c-2.551-16.223,3.861-30.23,13.559-42.888
		C5.795-84.428,8.062-86.69,10.752-89.722z M-169.371-143.172c-1.696,2.742-2.343,3.411-2.562,4.199
		c-5.167,18.625-10.469,37.217-15.206,55.951c-0.65,2.574,1.554,5.868,2.436,8.829c2.404-2.204,6.415-4.076,6.95-6.665
		c3.458-16.723,6.271-33.586,9.005-50.449C-168.239-134.443-169.043-137.792-169.371-143.172z M0.002-34.461
		c15.006-1.668,23.197-27.222,14.35-44.772C0.838-69.762-5.486-50.029,0.002-34.461z"/>
	<path fill-rule="evenodd" clip-rule="evenodd" d="M-203.448-148.436c-2.619,3.908-5.802,7.554-7.765,11.769
		c-11.446,24.585-17.633,50.21-14.934,77.599c0.681,6.917,2.986,10.511,10.477,8.456c0.848-0.233,1.872,0.182,3.15,0.335
		c-0.106,5.856-3.83,7.793-8.438,8.184c-5.952,0.506-9.718-2.572-11.293-8.321c-4.518-16.491-4.521-33.158,0.277-49.394
		c4.213-14.256,9.423-28.311,15.466-41.888c2.414-5.424,7.657-10.16,12.675-13.702c5.543-3.911,12.563-0.756,12.416,5.774
		c-0.229,10.136-2.505,20.236-4.162,30.311c-0.15,0.917-2.095,1.539-3.208,2.298c-1.015-1.748-2.945-3.531-2.877-5.236
		c0.231-5.84,1.404-11.639,1.721-17.481c0.145-2.66-0.872-5.382-1.362-8.076C-202.018-148.019-202.733-148.228-203.448-148.436z"/>
</g>
<g>
	<path fill-rule="evenodd" clip-rule="evenodd" fill="#FFFFFF" d="M-64.758,97.003c-1.065-1.636-1.961-3.183-3.018-4.612
		c-5.089-6.884-10.46-7.605-17.271-2.442c-1.72,1.304-3.46,2.669-5.389,3.592c-3.816,1.826-6.335,1.099-9.049-2.188
		c-2.713-3.287-3.646-3.326-6.729-0.392c-2.125,2.022-4.236,4.065-6.462,5.973c-2.066,1.771-4.501,2.111-6.657,0.369
		c-2.384-1.927-3.922-0.68-5.593,0.889c-6.229,5.849-6.232,5.843-12.545-0.006c-0.269-0.25-0.628-0.402-1.014-0.644
		c-2.08,2.594-2.168,7.583-6.947,6.717c-1.681-0.304-2.981-2.712-4.456-4.159c-0.25-0.698-0.5-1.396-0.749-2.094
		c-0.593,1.275-0.932,2.773-1.822,3.789c-3.942,4.494-8.714,7.899-14.513,9.523c-3.167,0.889-4.544,2.791-5.07,5.896
		c-1.106,6.535-2.387,13.041-3.712,19.536c-0.217,1.065-1.022,2.011-1.557,3.011c-0.476-1.149-1.478-2.368-1.342-3.441
		c0.832-6.574,1.705-13.159,3.006-19.651c0.775-3.866,0.57-7.229-1.674-10.55c-0.941-1.394-1.292-3.187-1.845-4.626
		c0.606-0.521,0.802-0.831,0.981-0.822c5.906,0.306,5.885,0.304,7.66-5.884c2.671-9.309,5.37-18.611,8.071-27.912
		c0.283-0.975,0.473-2.051,1.035-2.849c0.538-0.763,1.497-1.666,2.285-1.679c0.666-0.011,1.811,1.079,1.951,1.83
		c0.831,4.463,2.119,8.996,1.954,13.457c-0.286,7.745-1.518,15.455-2.354,23.179c0.329,0.214,0.658,0.429,0.986,0.642
		c1.972-2.624,3.869-5.311,5.954-7.841c0.772-0.937,1.987-1.509,3-2.248c0.634,0.967,1.554,1.858,1.838,2.918
		c0.481,1.799,0.562,3.705,0.921,6.388c1.662-2.055,2.896-3.588,4.139-5.115c1.833-2.252,3.417-2.349,4.973,0.373
		c2.717,4.751,4.52,5.031,8.072,0.828c2.598-3.074,4.765-4.808,9.039-2.365c1.449,0.828,4.718-0.741,6.735-1.928
		c1.907-1.123,3.139-3.33,4.889-4.799c3.187-2.677,6.428-2.125,8.566,1.354c1.797,2.924,4.292,3.018,6.929,1.636
		c2.016-1.056,3.8-2.553,5.692-3.847c7.693-5.257,16.697-3.251,21.148,4.918c1.433,2.63,2.959,3.095,5.51,1.758
		c3.611-1.892,7.235-3.817,11.028-5.278c1.305-0.503,3.13,0.342,4.716,0.572c-0.919,1.12-1.623,2.641-2.804,3.281
		c-2.791,1.513-5.868,2.489-8.722,3.897c-4.219,2.083-4.717,3.652-3.509,8.227c2.302,8.719,0.627,16.599-5.931,22.92
		c-1.501,1.446-4.733,2.688-6.349,2.025c-2.043-0.84-4.285-3.561-4.631-5.754c-1.327-8.438,2.008-15.721,7.051-22.305
		C-67.336,99.757-66.157,98.58-64.758,97.003z M-158.435,69.206c-0.882,1.426-1.219,1.774-1.333,2.184
		c-2.688,9.687-5.445,19.355-7.908,29.099c-0.338,1.338,0.808,3.053,1.267,4.592c1.25-1.146,3.336-2.119,3.614-3.467
		c1.799-8.697,3.261-17.467,4.684-26.237C-157.846,73.745-158.265,72.003-158.435,69.206z M-70.349,125.743
		c7.804-0.867,12.064-14.157,7.463-23.284C-69.915,107.384-73.204,117.647-70.349,125.743z"/>
	<path fill-rule="evenodd" clip-rule="evenodd" fill="#FFFFFF" d="M-176.158,66.468c-1.362,2.032-3.018,3.928-4.038,6.12
		c-5.953,12.786-9.17,26.112-7.767,40.356c0.354,3.598,1.553,5.467,5.449,4.398c0.441-0.122,0.974,0.094,1.639,0.174
		c-0.056,3.045-1.992,4.053-4.389,4.256c-3.096,0.264-5.054-1.338-5.873-4.327c-2.35-8.576-2.352-17.245,0.144-25.688
		c2.191-7.415,4.9-14.724,8.043-21.785c1.256-2.821,3.982-5.284,6.592-7.126c2.883-2.034,6.534-0.393,6.457,3.003
		c-0.119,5.271-1.303,10.524-2.164,15.764c-0.078,0.477-1.09,0.8-1.668,1.195c-0.527-0.909-1.532-1.837-1.496-2.724
		c0.12-3.037,0.73-6.053,0.895-9.091c0.075-1.383-0.454-2.799-0.708-4.2C-175.414,66.685-175.786,66.577-176.158,66.468z"/>
</g>
</svg>
