<?xml version="1.0" encoding="utf-8"?>
<!-- Generator: Adobe Illustrator 16.0.0, SVG Export Plug-In . SVG Version: 6.00 Build 0)  -->
<!DOCTYPE svg PUBLIC "-//W3C//DTD SVG 1.1//EN" "http://www.w3.org/Graphics/SVG/1.1/DTD/svg11.dtd">
<svg version="1.1" id="Layer_1" xmlns="http://www.w3.org/2000/svg" xmlns:xlink="http://www.w3.org/1999/xlink" x="0px" y="0px"
	 width="57.044px" height="108.5px" viewBox="0 0 57.044 108.5" enable-background="new 0 0 57.044 108.5" xml:space="preserve">
<g>
	<path fill-rule="evenodd" clip-rule="evenodd" fill="#FFFFFF" d="M49.833,57.833c-0.28-0.183,2.654-23.076,3.027-33.186
		c0.215-5.823-1.467-11.739-2.551-17.565c-0.182-0.979-1.678-2.402-2.546-2.388c-1.028,0.018-2.281,1.196-2.983,2.191
		c-0.734,1.041-0.981,2.446-1.351,3.719c-3.525,12.141-7.048,24.282-10.535,36.434c-2.317,8.077-2.289,8.079-9.999,7.681
		c-0.234-0.012-0.49,0.394-1.281,1.073c0.722,1.879,1.179,4.22,2.408,6.038c2.928,4.334,3.197,8.725,2.185,13.771
		c-1.699,8.475-2.838,17.07-3.924,25.651c-0.177,1.4,1.13,2.99,1.751,4.492c0.697-1.307,1.748-2.54,2.032-3.931
		c1.729-8.478,3.401-16.971,4.845-25.5c0.686-4.055,2.483-6.538,6.618-7.696c3.93-1.102,6.248-2.433,9.491-4.66
		C48.958,62.208,49.571,60.743,49.833,57.833z M38.266,60.474c-0.599-2.01-2.095-4.246-1.654-5.993
		c3.215-12.718,6.814-25.339,10.322-37.982c0.148-0.535,0.588-0.989,1.739-2.851c0.223,3.652,0.769,5.926,0.423,8.055
		c-1.856,11.447-3.766,22.895-6.113,34.247C42.621,57.707,39.898,58.978,38.266,60.474z"/>
	<path fill-rule="evenodd" clip-rule="evenodd" fill="#FFFFFF" d="M25.541,10.074c-1.778,2.653-3.939,5.128-5.271,7.989
		C12.5,34.753,8.299,52.148,10.132,70.741c0.462,4.695,2.027,7.136,7.112,5.74c0.576-0.158,1.271,0.123,2.139,0.228
		c-0.072,3.976-2.6,5.291-5.729,5.556c-4.041,0.343-6.597-1.746-7.666-5.648c-3.067-11.195-3.069-22.51,0.188-33.531
		c2.86-9.678,6.397-19.219,10.5-28.436c1.639-3.683,5.198-6.897,8.604-9.302c3.763-2.655,8.529-0.514,8.429,3.92
		c-0.155,6.881-1.701,13.737-2.825,20.576c-0.102,0.623-1.422,1.045-2.177,1.561c-0.689-1.187-2-2.397-1.954-3.555
		c0.157-3.965,0.953-7.901,1.168-11.867c0.098-1.806-0.592-3.653-0.924-5.482C26.512,10.357,26.026,10.216,25.541,10.074z"/>
</g>
</svg>
